<?xml version="1.0" encoding="utf-8"?><svg version="1.1" id="Layer_1" xmlns="http://www.w3.org/2000/svg" xmlns:xlink="http://www.w3.org/1999/xlink" x="0px" y="0px" viewBox="0 0 122.88 122.88" style="enable-background:new 0 0 122.88 122.88" xml:space="preserve"><g><path d="M68.13,12.02c11.07,1.48,20.98,6.61,28.5,14.13c7.54,7.54,12.67,17.49,14.14,28.59h-6.15c-1.42-9.42-5.86-17.86-12.3-24.29 c-6.41-6.42-14.81-10.85-24.2-12.29V12.02L68.13,12.02z M53.59,70.43c2.57,7.56,13.3,7.84,15.71,0c2.84,2.55,11.25,3.07,14.37,4.81 c0.99,0.55,1.88,1.25,2.61,2.2c1.5,1.98,4.56,7.55-0.41,7.93H37.02c-4.97-0.38-1.91-5.96-0.41-7.93c0.72-0.95,1.61-1.65,2.6-2.2 C42.34,73.5,50.74,72.98,53.59,70.43L53.59,70.43L53.59,70.43z M51.62,54.76c-0.54,0.02-0.95,0.14-1.23,0.32 c-0.16,0.1-0.28,0.24-0.35,0.4c-0.08,0.18-0.12,0.4-0.12,0.65c0.02,0.74,0.41,1.7,1.16,2.82l0.01,0.02l0,0l2.43,3.86 c0.97,1.55,1.99,3.13,3.26,4.29c1.22,1.11,2.7,1.87,4.66,1.88c2.12,0,3.68-0.78,4.93-1.96c1.31-1.23,2.34-2.91,3.36-4.59l2.74-4.5 c0.51-1.16,0.7-1.95,0.58-2.4c-0.07-0.27-0.37-0.4-0.88-0.43c-0.11,0-0.22,0-0.33,0c-0.13,0-0.25,0.01-0.38,0.02 c-0.07,0.01-0.14,0-0.21-0.02c-0.24,0.01-0.49,0-0.75-0.04l0.94-4.14c-6.95,1.1-12.16-4.07-19.51-1.03l0.53,4.89 C52.16,54.81,51.87,54.81,51.62,54.76L51.62,54.76L51.62,54.76z M73.1,53.9c0.67,0.21,1.11,0.63,1.28,1.32 c0.2,0.77-0.02,1.85-0.67,3.32l0,0c-0.01,0.03-0.03,0.06-0.04,0.08l-2.77,4.56c-1.07,1.76-2.15,3.52-3.6,4.87 c-1.49,1.4-3.34,2.33-5.87,2.33c-2.36,0-4.13-0.91-5.58-2.23c-1.41-1.29-2.48-2.95-3.5-4.57l-2.43-3.86 c-0.89-1.33-1.35-2.54-1.38-3.53c-0.02-0.47,0.07-0.89,0.24-1.26c0.18-0.39,0.46-0.72,0.84-0.97c0.17-0.12,0.37-0.22,0.59-0.3 c-0.16-2.1-0.22-4.73-0.12-6.94c0.05-0.52,0.15-1.05,0.3-1.57c0.62-2.22,2.18-4.01,4.11-5.23c1.06-0.68,2.22-1.19,3.44-1.53 c0.77-0.22-0.66-2.68,0.14-2.77c3.86-0.4,10.1,3.12,12.79,6.04c1.35,1.46,2.2,3.39,2.38,5.95L73.1,53.9L73.1,53.9L73.1,53.9z M64.48,119.84c0,1.68-1.36,3.04-3.04,3.04c-1.68,0-3.04-1.36-3.04-3.04V96.31c0-1.68,1.36-3.04,3.04-3.04 c1.68,0,3.04,1.36,3.04,3.04V119.84L64.48,119.84z M96.31,64.48c-1.68,0-3.04-1.36-3.04-3.04c0-1.68,1.36-3.04,3.04-3.04h23.52 c1.68,0,3.04,1.36,3.04,3.04c0,1.68-1.36,3.04-3.04,3.04H96.31L96.31,64.48z M64.48,26.57c0,1.68-1.36,3.04-3.04,3.04 c-1.68,0-3.04-1.36-3.04-3.04V3.04C58.4,1.36,59.76,0,61.44,0c1.68,0,3.04,1.36,3.04,3.04V26.57L64.48,26.57z M3.04,64.48 C1.36,64.48,0,63.12,0,61.44c0-1.68,1.36-3.04,3.04-3.04h23.52c1.68,0,3.04,1.36,3.04,3.04c0,1.68-1.36,3.04-3.04,3.04H3.04 L3.04,64.48z M110.75,68.13c-1.5,11.03-6.62,20.91-14.12,28.41c-7.52,7.52-17.43,12.64-28.5,14.13v-6.14 c9.38-1.44,17.78-5.87,24.2-12.29c6.4-6.4,10.82-14.76,12.27-24.11H110.75L110.75,68.13z M54.75,110.67 c-11.07-1.49-20.98-6.61-28.5-14.13c-7.5-7.5-12.61-17.38-14.12-28.41h6.15c1.45,9.35,5.88,17.71,12.27,24.11 c6.41,6.41,14.81,10.84,24.2,12.29V110.67L54.75,110.67z M12.1,54.75c1.47-11.1,6.6-21.05,14.14-28.59 c7.52-7.52,17.43-12.65,28.5-14.13v6.15c-9.38,1.44-17.78,5.87-24.2,12.29c-6.44,6.43-10.88,14.87-12.3,24.29H12.1L12.1,54.75z"/></g></svg>